<?xml version="1.0" encoding="UTF-8"?>
<svg xmlns="http://www.w3.org/2000/svg" width="512" height="512" viewBox="0 0 512 512" role="img" aria-label="D3keyHelper Linux icon">
  <defs>
    <radialGradient id="bg" cx="50%" cy="38%" r="72%">
      <stop offset="0" stop-color="#3a120f"/>
      <stop offset="0.48" stop-color="#120908"/>
      <stop offset="1" stop-color="#050505"/>
    </radialGradient>
    <linearGradient id="rim" x1="92" y1="64" x2="420" y2="448" gradientUnits="userSpaceOnUse">
      <stop offset="0" stop-color="#f3b45d"/>
      <stop offset="0.45" stop-color="#8f3a1e"/>
      <stop offset="1" stop-color="#220b08"/>
    </linearGradient>
    <linearGradient id="plate" x1="132" y1="118" x2="380" y2="398" gradientUnits="userSpaceOnUse">
      <stop offset="0" stop-color="#21100d"/>
      <stop offset="0.58" stop-color="#0d0b0a"/>
      <stop offset="1" stop-color="#050505"/>
    </linearGradient>
    <linearGradient id="gold" x1="139" y1="134" x2="365" y2="339" gradientUnits="userSpaceOnUse">
      <stop offset="0" stop-color="#fff0c5"/>
      <stop offset="0.28" stop-color="#e0a45b"/>
      <stop offset="0.66" stop-color="#9a4a24"/>
      <stop offset="1" stop-color="#3d1710"/>
    </linearGradient>
    <linearGradient id="ember" x1="220" y1="82" x2="292" y2="430" gradientUnits="userSpaceOnUse">
      <stop offset="0" stop-color="#ffe08a"/>
      <stop offset="0.35" stop-color="#ff7a29"/>
      <stop offset="0.72" stop-color="#951b17"/>
      <stop offset="1" stop-color="#210807"/>
    </linearGradient>
    <filter id="shadow" x="-25%" y="-25%" width="150%" height="155%" color-interpolation-filters="sRGB">
      <feDropShadow dx="0" dy="20" stdDeviation="18" flood-color="#000000" flood-opacity="0.66"/>
    </filter>
    <filter id="glow" x="-35%" y="-35%" width="170%" height="170%" color-interpolation-filters="sRGB">
      <feGaussianBlur stdDeviation="10" result="blur"/>
      <feMerge>
        <feMergeNode in="blur"/>
        <feMergeNode in="SourceGraphic"/>
      </feMerge>
    </filter>
  </defs>

  <rect width="512" height="512" rx="96" fill="url(#bg)"/>
  <path d="M105 410c48-30 93-38 144-24 46 12 77 36 158 13v63H105Z" fill="#000000" opacity="0.34"/>

  <g filter="url(#glow)">
    <path d="M256 68c28 52 54 112 54 173 0 66-22 122-54 166-32-44-54-100-54-166 0-61 26-121 54-173Z" fill="#3d0e0b"/>
    <path d="M256 94c20 45 38 94 38 144 0 50-14 91-38 124-24-33-38-74-38-124 0-50 18-99 38-144Z" fill="url(#ember)"/>
    <path d="M256 138c11 30 20 61 20 94 0 30-7 54-20 75-13-21-20-45-20-75 0-33 9-64 20-94Z" fill="#ffd375" opacity="0.8"/>
  </g>

  <g filter="url(#shadow)">
    <path d="M121 161c0-34 27-61 61-61h148c34 0 61 27 61 61v150c0 34-27 61-61 61H182c-34 0-61-27-61-61Z" fill="url(#rim)"/>
    <path d="M139 170c0-29 23-52 52-52h130c29 0 52 23 52 52v130c0 29-23 52-52 52H191c-29 0-52-23-52-52Z" fill="url(#plate)"/>
    <path d="M166 201h180v75H166Z" fill="#fff0c8" opacity="0.07"/>
    <path d="M145 244h222" fill="none" stroke="#5c2818" stroke-width="8" stroke-linecap="round" opacity="0.7"/>
    <path d="M256 119v232" fill="none" stroke="#5c2818" stroke-width="8" stroke-linecap="round" opacity="0.62"/>
  </g>

  <g font-family="Cinzel, Trajan Pro, Times New Roman, serif" font-weight="900" text-anchor="middle" filter="url(#shadow)">
    <text x="258" y="288" font-size="144" fill="#120706" opacity="0.78">D3</text>
    <text x="253" y="279" font-size="144" fill="#2b0d09">D3</text>
    <text x="253" y="273" font-size="144" fill="url(#gold)">D3</text>
  </g>

  <path d="M172 394h168" fill="none" stroke="#2b0d09" stroke-width="24" stroke-linecap="round" opacity="0.9"/>
  <path d="M184 390h144" fill="none" stroke="#e87b32" stroke-width="10" stroke-linecap="round"/>
  <circle cx="256" cy="390" r="8" fill="#ffd27a"/>
</svg>
